HIERARCHY
ROOT Hips
{
	OFFSET -0.179506 -22.333345 2.821913
	CHANNELS 6 Xposition Yposition Zposition Zrotation Yrotation Xrotation 
	JOINT LeftUpLeg
	{
		OFFSET 6.951974 -9.140623 -0.681533
		CHANNELS 3 Zrotation Yrotation Xrotation
		JOINT LeftLeg
		{
			OFFSET 3.427654 -37.519855 -0.449580
			CHANNELS 3 Zrotation Yrotation Xrotation
			JOINT LeftFoot
			{
				OFFSET -1.359570 -39.796059 -4.369333
				CHANNELS 3 Zrotation Yrotation Xrotation
				JOINT LeftToe
				{
					OFFSET 2.635814 -5.579078 11.928840
					CHANNELS 3 Zrotation Yrotation Xrotation
					End Site
					{
						OFFSET 0.000000 0.000000 0.000000
					}
				}
			}
		}
	}
	JOINT RightUpLeg
	{
		OFFSET -6.767048 -9.052170 -0.431982
		CHANNELS 3 Zrotation Yrotation Xrotation
		JOINT RightLeg
		{
			OFFSET -3.829005 -38.256897 -0.885003
			CHANNELS 3 Zrotation Yrotation Xrotation
			JOINT RightFoot
			{
				OFFSET 1.577377 -39.841461 -4.231180
				CHANNELS 3 Zrotation Yrotation Xrotation
				JOINT RightToe
				{
					OFFSET -2.537174 -4.814398 12.334795
					CHANNELS 3 Zrotation Yrotation Xrotation
					End Site
					{
						OFFSET 0.000000 0.000000 0.000000
					}
				}
			}
		}
	}
	JOINT Spine
	{
		OFFSET -0.253288 10.896323 -2.669631
		CHANNELS 3 Zrotation Yrotation Xrotation
		JOINT Spine1
		{
			OFFSET 0.548704 13.518043 0.109247
			CHANNELS 3 Zrotation Yrotation Xrotation
			JOINT Spine2
			{
				OFFSET 0.145701 5.292222 2.542457
				CHANNELS 3 Zrotation Yrotation Xrotation
				JOINT Neck
				{
					OFFSET -0.277840 21.387037 -4.285703
					CHANNELS 3 Zrotation Yrotation Xrotation
					JOINT Head
					{
						OFFSET 0.515184 6.496960 5.134897
						CHANNELS 3 Zrotation Yrotation Xrotation
						End Site
						{
							OFFSET 0.000000 0.000000 0.000000
						}
					}
				}
				JOINT LeftShoulder
				{
					OFFSET 7.884473 12.174932 -3.408961
					CHANNELS 3 Zrotation Yrotation Xrotation
					JOINT LeftArm
					{
						OFFSET 9.097692 3.046888 -0.886815
						CHANNELS 3 Zrotation Yrotation Xrotation
						JOINT LeftForeArm
						{
							OFFSET 25.961220 -1.277207 -2.745643
							CHANNELS 3 Zrotation Yrotation Xrotation
							JOINT LeftHand
							{
								OFFSET 24.923361 0.898606 -0.117091
								CHANNELS 3 Zrotation Yrotation Xrotation
								End Site
								{
									OFFSET 0.000000 0.000000 0.000000
								}
							}
						}
					}
				}
				JOINT RightShoulder
				{
					OFFSET -8.175920 11.883285 -3.861528
					CHANNELS 3 Zrotation Yrotation Xrotation
					JOINT RightArm
					{
						OFFSET -9.601238 3.255117 -0.914307
						CHANNELS 3 Zrotation Yrotation Xrotation
						JOINT RightForeArm
						{
							OFFSET -25.374195 -1.332924 -2.140099
							CHANNELS 3 Zrotation Yrotation Xrotation
							JOINT RightHand
							{
								OFFSET -25.529810 0.777228 -0.555919
								CHANNELS 3 Zrotation Yrotation Xrotation
								End Site
								{
									OFFSET 0.000000 0.000000 0.000000
								}
							}
						}
					}
				}
			}
		}
	}
}
MOTION
Frames: 10
Frame Time: 0.033333
-32.680687 -31.606323 99.034882 -50.657377 16.602057 70.794504 15.449474 0.319424 6.211455 -5.035533 -22.184582 21.328061 7.661525 4.480179 -21.245594 nan nan nan -27.733026 -19.582128 -60.242439 2.999883 -17.108682 75.246109 17.256766 -2.752699 24.687263 nan nan nan 8.204363 -3.908172 25.123842 4.576587 10.405670 -1.680541 2.000439 2.975628 2.380641 10.382690 -17.443743 1.223792 -2.119115 -14.168343 18.514647 -13.173625 4.699217 11.088643 -57.969232 6.347507 20.126871 -107.142336 -78.963863 107.282186 14.330936 -23.389155 -68.382825 5.758304 15.191130 -7.526160 7.794414 34.659439 -22.190578 -59.276350 37.827322 -82.104860 7.683177 17.692522 -18.223522 
-33.128246 -31.599134 98.961014 -49.269433 16.693618 71.874634 15.553325 -0.059283 5.214762 -5.163195 -22.446521 21.271095 7.748864 4.121341 -21.257896 nan nan nan -27.864789 -19.533423 -58.246359 2.753538 -17.235383 77.116817 17.365626 -1.749827 25.064349 nan nan nan 7.963641 -3.463156 23.455616 4.929220 9.930988 -1.282793 2.006369 2.911017 2.084385 10.499277 -17.989645 1.769887 -1.900054 -14.366457 18.037364 -13.391076 5.075664 11.239639 -58.309858 6.296153 19.634648 -106.855578 -78.646215 107.249890 13.380344 -24.949509 -69.453652 6.046029 14.564574 -7.281174 7.546526 34.167548 -22.939607 -58.924330 37.976334 -80.775616 8.786091 18.037960 -17.771601 
-33.571404 -31.541922 98.870186 -47.612333 16.731887 73.069978 15.604533 -0.492123 3.878009 -5.510910 -22.977744 21.644014 7.902300 3.855497 -21.359489 nan nan nan -28.017948 -19.546262 -55.944163 2.832072 -17.268235 78.330192 17.432939 -0.676985 25.268673 nan nan nan 7.567380 -2.907273 21.592636 5.363517 9.241317 -0.519321 2.072849 2.736266 1.565724 10.645458 -18.576743 2.530940 -1.627813 -14.527811 17.187822 -13.699184 5.226769 11.457363 -58.164600 6.737996 19.305798 -106.433447 -77.918175 107.487870 8.302197 -24.941553 -68.604464 6.454635 14.015691 -6.969534 7.052751 33.496641 -23.748091 -58.647540 38.240103 -80.039482 9.666100 17.684203 -17.551325 
-34.009972 -31.509098 98.761452 -45.820833 16.607988 74.188135 15.405697 -1.104452 2.559281 -5.764454 -23.337356 22.170684 7.977802 3.562710 -21.609131 nan nan nan -28.290901 -19.476068 -53.240689 2.996655 -17.243331 78.967043 17.596557 -0.295354 25.438944 nan nan nan 6.956771 -2.290234 19.915854 5.783861 8.501209 0.148095 2.166061 2.528896 1.174172 10.904640 -19.131741 2.825707 -1.547282 -14.842824 16.682105 -13.903660 5.334504 11.618386 -58.302285 6.856690 19.294471 -108.014774 -77.974759 109.044788 7.456183 -24.352816 -67.923159 6.648549 13.383413 -7.175522 6.989971 32.733955 -23.715560 -58.447941 38.388120 -79.828089 9.787000 17.329522 -17.489983 
-34.462456 -31.522747 98.638580 -44.107425 16.308797 75.092605 15.016086 -1.857384 1.544043 -5.944477 -23.419345 22.606089 7.937307 3.311229 -21.851224 nan nan nan -28.519717 -19.150284 -50.355447 3.259901 -17.001079 79.195059 18.122460 -0.468300 25.927161 nan nan nan 6.231118 -1.619284 18.324579 6.123848 7.790298 1.013533 2.195363 2.268538 0.824044 11.243686 -19.615687 2.797946 -1.529031 -15.254445 16.444450 -14.009126 5.454540 11.800021 -58.435164 6.743610 19.371866 -109.425686 -78.166506 110.556497 6.965230 -24.560108 -67.607304 6.861083 12.740479 -7.477450 6.926792 32.136157 -23.549368 -58.402268 38.317143 -79.628194 10.282836 17.265617 -17.540227 
-34.923500 -31.521370 98.519951 -42.652268 15.867118 75.749486 14.595920 -2.625417 0.852656 -6.256015 -23.364142 22.946799 8.133556 3.277572 -22.060405 nan nan nan -28.418182 -18.562084 -47.525773 3.839605 -16.312171 78.952627 18.788691 -0.506162 26.311065 nan nan nan 5.329395 -0.886406 16.924123 6.381574 7.125715 1.841325 2.242492 2.087974 0.674552 11.758371 -19.918003 2.451519 -1.479634 -15.672909 16.556682 -14.015629 5.502571 11.826382 -58.655177 6.518591 19.473256 -109.897004 -78.377921 111.611633 7.165620 -24.883429 -67.556335 7.011198 12.226868 -7.678445 6.877276 31.573422 -23.469728 -58.438821 37.960079 -79.184895 10.553117 17.514059 -17.867516 
-35.401234 -31.471048 98.407043 -41.378134 15.418121 76.291039 14.322113 -3.239013 0.247634 -6.622149 -23.232719 23.211893 8.452545 3.313359 -22.204017 nan nan nan -27.931188 -17.813018 -44.772711 4.452395 -15.282389 78.216020 19.463409 -0.384368 26.599583 nan nan nan 4.385333 -0.152569 15.708601 6.554008 6.558355 2.372751 2.315486 1.984999 0.718582 12.208531 -20.234618 2.257379 -1.285232 -16.115103 16.635922 -13.946619 5.417247 11.830441 -58.841988 6.315820 19.573096 -110.291219 -78.623354 112.781832 7.453481 -24.501452 -67.028736 6.997594 11.726196 -7.944257 7.149389 30.896269 -23.319788 -58.374487 37.650259 -78.632733 10.471904 17.602000 -18.212112 
-35.931705 -31.420765 98.284653 -40.386481 14.961094 76.780352 14.169030 -3.605786 -0.200911 -6.849689 -22.917214 23.189497 8.814903 3.270357 -22.326511 nan nan nan -27.168568 -16.749901 -42.088727 4.910605 -14.229358 77.031980 19.737742 -0.372912 26.442923 nan nan nan 3.507032 0.631998 14.513169 6.624047 6.193762 2.814543 2.328142 1.936099 0.720318 12.481332 -20.671793 2.470261 -0.936345 -16.696854 16.491718 -13.803434 5.274440 11.976784 -58.831668 6.137128 19.626865 -110.654927 -78.682124 113.698969 7.814659 -24.077891 -66.474082 6.943147 11.204954 -8.239343 7.638983 30.008517 -23.088699 -58.253676 37.526477 -78.209825 10.436384 17.663521 -18.421287 
-36.550304 -31.456476 98.189522 -39.830692 14.418445 76.942674 13.960724 -3.567822 -0.037373 -6.782973 -22.578704 22.872118 9.001718 2.954250 -22.508481 nan nan nan -26.121258 -15.660508 -39.183371 5.168871 -12.936262 75.392792 19.296019 -0.142371 25.571209 nan nan nan 2.606230 1.552936 13.439892 6.604018 6.010400 3.507669 2.361901 2.007665 0.479321 12.605606 -21.152712 3.031468 -0.412798 -17.315808 16.100496 -13.642826 5.170599 12.170050 -58.745090 6.000106 19.452150 -110.980181 -78.444356 114.126681 7.899216 -24.262688 -66.971660 6.951357 10.783925 -8.308199 8.054147 28.891271 -23.029675 -58.290350 37.548482 -77.889784 10.659029 17.871125 -18.700105 
-37.037865 -31.374857 98.091110 -38.727894 14.075361 77.108378 13.792891 -3.555954 -0.263967 -6.844078 -22.808853 23.112548 8.854370 2.611042 -22.739476 nan nan nan -24.979822 -15.137283 -35.827753 5.424412 -11.588487 73.183454 18.552045 0.028183 24.638249 nan nan nan 2.066705 2.225135 13.319165 6.339500 5.605926 3.155188 2.369157 2.078592 0.617472 12.653075 -21.538107 2.955820 0.054037 -17.954454 16.275303 -13.436710 5.024624 12.032420 -58.602878 5.818461 19.225682 -111.496333 -78.092065 114.737690 7.752016 -24.567151 -67.797574 6.686362 10.354297 -8.763079 8.727865 27.651424 -22.816937 -58.376450 37.691698 -77.515173 10.587976 18.089094 -19.144599 
